<svg width="22" height="22" viewBox="0 0 22 22" fill="none" xmlns="http://www.w3.org/2000/svg">
  <rect width="22" height="22" rx="3" fill="#363165" />
  <path d="M5.96875 7.63281C5.96875 7.46875 5.90495 7.32292 5.77734 7.19531L4.54688 5.71875V5.5H8.40234L11.3555 12.0078L13.9531 5.5H17.6172V5.71875L16.5508 6.73047C16.4596 6.80339 16.4232 6.90365 16.4414 7.03125V14.4688C16.4232 14.5964 16.4596 14.6966 16.5508 14.7695L17.5898 15.7812V16H12.3945V15.7812L13.4609 14.7422C13.5156 14.6875 13.543 14.651 13.543 14.6328C13.5612 14.5964 13.5703 14.5326 13.5703 14.4414V8.42578L10.6172 15.9727H10.207L6.73438 8.42578V13.4844C6.71615 13.7031 6.77995 13.8945 6.92578 14.0586L8.32031 15.7539V15.9727H4.38281V15.7539L5.77734 14.0586C5.94141 13.8945 6.00521 13.7031 5.96875 13.4844V7.63281Z" fill="white" />
</svg>
