<svg width="20" height="20" viewBox="0 0 20 20" fill="none" xmlns="http://www.w3.org/2000/svg">
<path fill-rule="evenodd" clip-rule="evenodd" d="M2.24112 4.11612C2.47554 3.8817 2.79348 3.75 3.125 3.75L7.29167 3.75C7.56213 3.75 7.8253 3.83772 8.04167 4L10.2083 5.625L16.875 5.625C17.2065 5.625 17.5245 5.7567 17.7589 5.99112C17.9933 6.22554 18.125 6.54348 18.125 6.875L18.125 15.6944C18.125 16.0075 18.0006 16.3078 17.7792 16.5292C17.5578 16.7506 17.2575 16.875 16.9444 16.875L3.125 16.875C2.79348 16.875 2.47554 16.7433 2.24112 16.5089C2.0067 16.2745 1.875 15.9565 1.875 15.625L1.875 5C1.875 4.66848 2.0067 4.35054 2.24112 4.11612ZM7.29167 5L3.125 5L3.125 15.625L16.875 15.625L16.875 6.875L10.2083 6.875C9.93787 6.875 9.6747 6.78728 9.45833 6.625L7.29167 5Z" fill="white"/>
<path fill-rule="evenodd" clip-rule="evenodd" d="M7.5 11.25C7.5 10.9048 7.77982 10.625 8.125 10.625L11.875 10.625C12.2202 10.625 12.5 10.9048 12.5 11.25C12.5 11.5952 12.2202 11.875 11.875 11.875L8.125 11.875C7.77982 11.875 7.5 11.5952 7.5 11.25Z" fill="white"/>
<path fill-rule="evenodd" clip-rule="evenodd" d="M10 8.75C10.3452 8.75 10.625 9.02982 10.625 9.375L10.625 13.125C10.625 13.4702 10.3452 13.75 10 13.75C9.65482 13.75 9.375 13.4702 9.375 13.125L9.375 9.375C9.375 9.02982 9.65482 8.75 10 8.75Z" fill="white"/>
</svg>
