<svg width="14" height="8" viewBox="0 0 14 8" fill="none" xmlns="http://www.w3.org/2000/svg">
<path d="M9.8125 2.75H0.375C0.270833 2.75 0.177083 2.79167 0.09375 2.875C0.03125 2.9375 0 3.02083 0 3.125V4.875C0 4.97917 0.03125 5.07292 0.09375 5.15625C0.177083 5.21875 0.270833 5.25 0.375 5.25H9.8125V6.6875C9.8125 6.89583 9.88542 7.07292 10.0312 7.21875C10.1771 7.36458 10.3542 7.4375 10.5625 7.4375C10.7708 7.4375 10.9479 7.36458 11.0938 7.21875L13.7812 4.53125C13.9271 4.38542 14 4.20833 14 4C14 3.79167 13.9271 3.61458 13.7812 3.46875L11.0938 0.78125C10.9479 0.635417 10.7708 0.5625 10.5625 0.5625C10.3542 0.5625 10.1771 0.635417 10.0312 0.78125C9.88542 0.927083 9.8125 1.10417 9.8125 1.3125V2.75Z" fill="#5769DF"/>
</svg>
