<svg width="156" height="57" viewBox="0 0 156 57" fill="none" xmlns="http://www.w3.org/2000/svg">
<path fill-rule="evenodd" clip-rule="evenodd" d="M20.0557 54.4696L10.9001 51.1769V37.7227L20.0557 40.8502V54.4696Z" fill="#A7A7A7"/>
<path fill-rule="evenodd" clip-rule="evenodd" d="M21.7349 54.4696L30.8904 51.1769V37.7227L21.7349 40.8502V54.4696Z" fill="#A7A7A7"/>
<path fill-rule="evenodd" clip-rule="evenodd" d="M11.8411 36.7161L21.1074 34.1011L29.6993 36.8784L21.1074 39.803L11.8411 36.7161Z" fill="#A7A7A7"/>
<path fill-rule="evenodd" clip-rule="evenodd" d="M9.15557 35.6738L0 32.3811V18.9272L9.15557 22.054V35.6738Z" fill="#A7A7A7"/>
<path fill-rule="evenodd" clip-rule="evenodd" d="M10.8347 35.6738L19.9907 32.3811V18.9272L10.8347 22.054V35.6738Z" fill="#A7A7A7"/>
<path fill-rule="evenodd" clip-rule="evenodd" d="M0.940918 17.9206L10.2072 15.3062L18.7995 18.0834L10.2072 21.0076L0.940918 17.9206Z" fill="#A7A7A7"/>
<path fill-rule="evenodd" clip-rule="evenodd" d="M30.5195 35.6738L21.3635 32.3811V18.9272L30.5195 22.054V35.6738Z" fill="#A7A7A7"/>
<path fill-rule="evenodd" clip-rule="evenodd" d="M32.1982 35.6738L41.3543 32.3811V18.9272L32.1982 22.054V35.6738Z" fill="#A7A7A7"/>
<path fill-rule="evenodd" clip-rule="evenodd" d="M22.3044 17.9206L31.5704 15.3062L40.1625 18.0834L31.5704 21.0076L22.3044 17.9206Z" fill="#A7A7A7"/>
<path fill-rule="evenodd" clip-rule="evenodd" d="M41.4194 16.8784L32.2637 13.586V0.131836L41.4194 3.259V16.8784Z" fill="#A7A7A7"/>
<path fill-rule="evenodd" clip-rule="evenodd" d="M43.0984 16.8784L52.2544 13.586V0.131836L43.0984 3.259V16.8784Z" fill="#A7A7A7"/>
<path fill-rule="evenodd" clip-rule="evenodd" d="M62.7832 16.8784L53.6272 13.586V0.131836L62.7832 3.259V16.8784Z" fill="#A7A7A7"/>
<path fill-rule="evenodd" clip-rule="evenodd" d="M64.4617 16.8784L73.6176 13.586V0.131836L64.4617 3.259V16.8784Z" fill="#A7A7A7"/>
<path fill-rule="evenodd" clip-rule="evenodd" d="M58.1256 45.7051L55.0501 56.4165H53.7132L51.3188 48.4605L49.1229 56.4165H47.7606L44.564 45.7051H46.2168L48.5449 53.6873L50.7611 45.7051H51.9809L54.39 53.7128L56.7832 45.7051H58.1256Z" fill="#757575"/>
<path fill-rule="evenodd" clip-rule="evenodd" d="M66.5429 49.9617C66.5286 49.3611 66.4306 48.8275 66.2472 48.3615C66.0642 47.8946 65.7546 47.4975 65.3183 47.1684C64.8821 46.8401 64.3577 46.6757 63.7456 46.6757C62.9224 46.6757 62.2237 46.9726 61.6505 47.5663C61.077 48.1601 60.7554 48.9584 60.6848 49.9617H66.5429ZM66.6334 53.2213L68.1815 53.5397C67.8997 54.4558 67.3507 55.2143 66.5346 55.814C65.7173 56.4146 64.7567 56.7146 63.6512 56.7146C62.194 56.7146 61.015 56.2001 60.1136 55.1697C59.2125 54.1402 58.762 52.7899 58.762 51.1197C58.762 49.4137 59.2304 48.0355 60.1668 46.9849C61.1028 45.9335 62.2785 45.4082 63.694 45.4082C65.0885 45.4082 66.2095 45.8917 67.0577 46.8596C67.9064 47.8278 68.3411 49.2752 68.3621 51.2033H60.6074C60.6074 52.8234 60.9448 53.9158 61.6208 54.4817C62.2956 55.0476 63.0101 55.3301 63.7627 55.3301C65.1206 55.3301 66.0773 54.6273 66.6334 53.2213Z" fill="#757575"/>
<path fill-rule="evenodd" clip-rule="evenodd" d="M72.2132 52.2175C72.2906 53.3174 72.6268 54.1153 73.2223 54.612C73.8177 55.1082 74.4464 55.3566 75.1086 55.3566C75.9537 55.3566 76.6352 54.9885 77.1528 54.2526C77.6708 53.5172 77.9297 52.5088 77.9297 51.2285C77.9297 49.8492 77.6796 48.7648 77.1794 47.9756C76.6789 47.1869 75.985 46.7921 75.0982 46.7921C74.4004 46.7921 73.772 47.0731 73.2119 47.6342C72.6515 48.1965 72.3188 48.922 72.2132 49.8118V52.2175ZM71.3487 56.4171H70.5488V41.9541H72.2132V47.4909C72.973 46.1024 74.0205 45.4084 75.357 45.4084C76.5804 45.4084 77.6054 45.8927 78.4322 46.8629C79.2582 47.8324 79.6719 49.2411 79.6719 51.0877C79.6719 52.6803 79.265 54.0162 78.4524 55.0951C77.6387 56.1748 76.5812 56.7148 75.2788 56.7148C73.8288 56.7148 72.7166 56.0243 71.9421 54.645L71.3487 56.4171Z" fill="#757575"/>
<path fill-rule="evenodd" clip-rule="evenodd" d="M83.9138 53.6408L85.5008 53.3121C85.8537 54.6576 86.9683 55.3301 88.8447 55.3301C89.5354 55.3301 90.1213 55.1753 90.6008 54.8649C91.0807 54.5549 91.3204 54.1175 91.3204 53.5532C91.3204 52.7147 90.7099 52.1823 89.4889 51.9566L87.2382 51.5272C86.357 51.3577 85.656 51.0254 85.1344 50.5303C84.6132 50.0353 84.3524 49.3814 84.3524 48.568C84.3524 47.6706 84.7081 46.9193 85.4198 46.3148C86.1312 45.7103 87.0894 45.4082 88.2941 45.4082C90.6119 45.4082 92.0429 46.3163 92.5851 48.1322L91.0624 48.4606C90.6254 47.3483 89.7279 46.7919 88.3695 46.7919C87.6931 46.7919 87.1386 46.9312 86.7051 47.209C86.2721 47.4867 86.0557 47.8751 86.0557 48.375C86.0557 49.1621 86.6095 49.6576 87.7158 49.8622L89.7958 50.2458C91.9738 50.6418 93.0622 51.7011 93.0622 53.4215C93.0622 54.4057 92.657 55.2008 91.8456 55.8057C91.035 56.4118 89.9565 56.7146 88.6093 56.7146C86.0784 56.7146 84.5128 55.6895 83.9138 53.6408Z" fill="#757575"/>
<path fill-rule="evenodd" clip-rule="evenodd" d="M101.824 49.9617C101.81 49.3611 101.711 48.8275 101.529 48.3615C101.345 47.8946 101.036 47.4975 100.6 47.1684C100.164 46.8401 99.639 46.6757 99.0273 46.6757C98.204 46.6757 97.5054 46.9726 96.9318 47.5663C96.3582 48.1601 96.0363 48.9584 95.966 49.9617H101.824ZM101.915 53.2213L103.463 53.5397C103.182 54.4558 102.632 55.2143 101.815 55.814C100.999 56.4146 100.038 56.7146 98.9328 56.7146C97.4752 56.7146 96.2959 56.2001 95.3952 55.1697C94.4937 54.1402 94.0432 52.7899 94.0432 51.1197C94.0432 49.4137 94.5112 48.0355 95.4484 46.9849C96.3848 45.9335 97.5606 45.4082 98.9761 45.4082C100.369 45.4082 101.491 45.8917 102.339 46.8596C103.188 47.8278 103.623 49.2752 103.643 51.2033H95.8886C95.8886 52.8234 96.2264 53.9158 96.9016 54.4817C97.5776 55.0476 98.2913 55.3301 99.0443 55.3301C100.402 55.3301 101.359 54.6273 101.915 53.2213Z" fill="#757575"/>
<path fill-rule="evenodd" clip-rule="evenodd" d="M107.098 56.417H105.433V45.7055H106.891V48.2023C107.405 47.0327 107.922 46.275 108.439 45.9287C108.957 45.5813 109.487 45.4082 110.03 45.4082C110.199 45.4082 110.417 45.4209 110.685 45.4472V47.0382H110.348C109.433 47.0382 108.673 47.3789 108.068 48.0602C107.464 48.7415 107.14 49.6365 107.098 50.7464V56.417Z" fill="#757575"/>
<path fill-rule="evenodd" clip-rule="evenodd" d="M121.023 45.7051L117.335 56.4165H115.609L111.798 45.7051H113.639L116.604 54.4116L119.547 45.7051H121.023Z" fill="#757575"/>
<path fill-rule="evenodd" clip-rule="evenodd" d="M124.096 56.4171H122.432V45.7057H124.096V56.4171ZM124.135 43.8038H122.354V41.9541H124.135V43.8038Z" fill="#757575"/>
<path fill-rule="evenodd" clip-rule="evenodd" d="M132.792 52.6654L134.289 52.93C134.077 54.114 133.609 55.0404 132.883 55.7098C132.157 56.3795 131.252 56.7146 130.167 56.7146C128.694 56.7146 127.572 56.1694 126.8 55.0794C126.029 53.9898 125.643 52.659 125.643 51.0875C125.643 49.4598 126.05 48.1064 126.864 47.0271C127.677 45.9474 128.785 45.4082 130.187 45.4082C131.351 45.4082 132.282 45.7568 132.983 46.4548C133.685 47.1521 134.119 48.053 134.289 49.1582L132.792 49.4439C132.51 47.6766 131.659 46.7919 130.236 46.7919C129.321 46.7919 128.617 47.1823 128.125 47.9627C127.632 48.7435 127.385 49.7551 127.385 50.9979C127.385 52.3681 127.63 53.4323 128.119 54.1916C128.608 54.9505 129.296 55.3301 130.184 55.3301C131.556 55.3301 132.425 54.4419 132.792 52.6654Z" fill="#757575"/>
<path fill-rule="evenodd" clip-rule="evenodd" d="M143.585 49.9617C143.571 49.3611 143.472 48.8275 143.289 48.3615C143.106 47.8946 142.797 47.4975 142.361 47.1684C141.924 46.8401 141.4 46.6757 140.788 46.6757C139.964 46.6757 139.266 46.9726 138.692 47.5663C138.118 48.1601 137.797 48.9584 137.727 49.9617H143.585ZM143.675 53.2213L145.223 53.5397C144.942 54.4558 144.393 55.2143 143.576 55.814C142.76 56.4146 141.799 56.7146 140.693 56.7146C139.236 56.7146 138.056 56.2001 137.155 55.1697C136.254 54.1402 135.803 52.7899 135.803 51.1197C135.803 49.4137 136.272 48.0355 137.209 46.9849C138.145 45.9335 139.321 45.4082 140.736 45.4082C142.13 45.4082 143.252 45.8917 144.1 46.8596C144.949 47.8278 145.383 49.2752 145.404 51.2033H137.649C137.649 52.8234 137.987 53.9158 138.662 54.4817C139.338 55.0476 140.052 55.3301 140.805 55.3301C142.162 55.3301 143.119 54.6273 143.675 53.2213Z" fill="#757575"/>
<path fill-rule="evenodd" clip-rule="evenodd" d="M146.344 53.6408L147.931 53.3121C148.284 54.6576 149.398 55.3301 151.275 55.3301C151.966 55.3301 152.551 55.1753 153.031 54.8649C153.511 54.5549 153.75 54.1175 153.75 53.5532C153.75 52.7147 153.14 52.1823 151.919 51.9566L149.669 51.5272C148.787 51.3577 148.086 51.0254 147.564 50.5303C147.044 50.0353 146.782 49.3814 146.782 48.568C146.782 47.6706 147.138 46.9193 147.85 46.3148C148.561 45.7103 149.519 45.4082 150.724 45.4082C153.042 45.4082 154.473 46.3163 155.015 48.1322L153.492 48.4606C153.056 47.3483 152.158 46.7919 150.799 46.7919C150.123 46.7919 149.569 46.9312 149.135 47.209C148.702 47.4867 148.486 47.8751 148.486 48.375C148.486 49.1621 149.039 49.6576 150.146 49.8622L152.226 50.2458C154.404 50.6418 155.493 51.7011 155.493 53.4215C155.493 54.4057 155.087 55.2008 154.276 55.8057C153.465 56.4118 152.386 56.7146 151.04 56.7146C148.508 56.7146 146.943 55.6895 146.344 53.6408Z" fill="#757575"/>
<path fill-rule="evenodd" clip-rule="evenodd" d="M108.826 22.8123V20.2395C108.828 19.8479 109.122 19.5868 109.477 19.5872L120.979 19.5864C121.347 19.5864 121.642 19.8546 121.643 20.2363L121.642 22.443C121.639 22.8127 121.329 23.2962 120.776 24.0627L114.818 32.5913C117.03 32.5392 119.37 32.8711 121.379 34.0037C121.832 34.2588 121.953 34.6372 121.989 35.0081V37.7533C121.989 38.1317 121.576 38.5695 121.142 38.3414C117.602 36.4826 112.903 36.2788 108.989 38.3641C108.589 38.5778 108.17 38.1464 108.17 37.768V35.1582C108.17 34.7407 108.178 34.0264 108.598 33.3896L115.501 23.461L109.491 23.4598C109.123 23.4598 108.829 23.1975 108.826 22.8123Z" fill="#757575"/>
<path fill-rule="evenodd" clip-rule="evenodd" d="M67.6614 38.8827H64.1623C63.8292 38.8608 63.5629 38.6097 63.5359 38.2898L63.5383 20.2833C63.5383 19.9231 63.8407 19.635 64.2135 19.635L67.4724 19.6342C67.8138 19.6517 68.0873 19.9104 68.1091 20.2387V22.5899H68.1746C69.0241 20.3163 70.6246 19.2554 72.7804 19.2554C74.9687 19.2554 76.3406 20.3163 77.321 22.5899C78.1701 20.3163 80.0973 19.2554 82.1555 19.2554C83.6254 19.2554 85.2258 19.8615 86.2059 21.2257C87.3166 22.7411 87.0879 24.939 87.0879 26.8715L87.0855 38.2344C87.0855 38.5942 86.7831 38.8827 86.4103 38.8827H82.9152C82.5639 38.86 82.2868 38.5811 82.2868 38.236L82.2861 28.6902C82.2861 27.9325 82.3515 26.0378 82.188 25.3179C81.9268 24.1053 81.1428 23.7642 80.1302 23.7642C79.2808 23.7642 78.3988 24.3325 78.0395 25.2423C77.6799 26.1516 77.7128 27.667 77.7128 28.6902V38.2344C77.7128 38.5942 77.4108 38.8827 77.038 38.8827H73.5425C73.1916 38.86 72.9141 38.5811 72.9141 38.236L72.911 28.6902C72.911 26.6821 73.2377 23.7264 70.7552 23.7264C68.2397 23.7264 68.3378 26.6061 68.3378 28.6902L68.3362 38.2344C68.3366 38.5942 68.0341 38.8827 67.6614 38.8827Z" fill="#757575"/>
<path fill-rule="evenodd" clip-rule="evenodd" d="M130.125 23.3941C127.564 23.3941 127.403 26.9177 127.403 29.1156C127.403 31.3131 127.37 35.5486 130.092 35.5486C132.782 35.5486 132.912 32.2229 132.912 29.9115C132.912 28.3957 132.847 26.577 132.393 25.1372C132.004 23.8868 131.226 23.3941 130.125 23.3941ZM130.092 19.2554C135.245 19.2554 138.032 23.7264 138.032 29.4101C138.032 34.9039 134.954 39.262 130.092 39.262C125.037 39.262 122.282 34.7905 122.282 29.2207C122.282 23.6126 125.07 19.2554 130.092 19.2554Z" fill="#757575"/>
<path fill-rule="evenodd" clip-rule="evenodd" d="M145.49 38.8827H142.003C141.653 38.86 141.375 38.5811 141.375 38.236L141.37 20.2228C141.399 19.8937 141.689 19.635 142.042 19.635L145.288 19.6342C145.594 19.6497 145.845 19.8591 145.91 20.1384V22.8927H145.976C146.955 20.4297 148.327 19.2554 150.744 19.2554C152.312 19.2554 153.848 19.8237 154.828 21.3773C155.743 22.8171 155.743 25.2423 155.743 26.9853V38.3152C155.703 38.6348 155.418 38.8827 155.072 38.8827H151.564C151.24 38.8616 150.979 38.6232 150.94 38.3152V28.5386C150.94 26.5683 151.169 23.6886 148.752 23.6886C147.902 23.6886 147.119 24.2569 146.727 25.1285C146.237 26.2272 146.171 27.326 146.171 28.5386V38.2344C146.165 38.5942 145.862 38.8827 145.49 38.8827Z" fill="#757575"/>
<path fill-rule="evenodd" clip-rule="evenodd" d="M103.581 38.8373C103.35 39.0454 103.016 39.0597 102.755 38.9188C101.592 37.9502 101.384 37.5025 100.749 36.5808C98.8276 38.5428 97.4672 39.1309 94.9792 39.1309C92.033 39.1309 89.7415 37.3083 89.7415 33.663C89.7415 30.8148 91.28 28.8783 93.4732 27.9288C95.3717 27.0935 98.0237 26.9415 100.053 26.7138V26.2582C100.053 25.4228 100.119 24.4351 99.6278 23.714C99.2023 23.0681 98.3838 22.8023 97.6637 22.8023C96.3288 22.8023 95.1423 23.488 94.851 24.9091C94.7906 25.2251 94.56 25.5379 94.2432 25.5542L90.8513 25.1861C90.5647 25.1212 90.2464 24.8912 90.3289 24.4526C91.1085 20.327 94.8244 19.0806 98.1547 19.0806C99.8568 19.0806 102.083 19.5362 103.425 20.8276C105.128 22.4226 104.964 24.5493 104.964 26.8654V32.3314C104.964 33.9758 105.645 34.6969 106.285 35.5831C106.508 35.9023 106.558 36.282 106.273 36.5148C105.558 37.1157 104.288 38.2216 103.59 38.8452L103.581 38.8373ZM100.053 30.2831C100.053 31.6505 100.086 32.7895 99.3988 34.0048C98.8422 34.9922 97.9582 35.5999 96.9758 35.5999C95.6341 35.5999 94.8482 34.5743 94.8482 33.0553C94.8482 30.0674 97.5216 29.5238 100.053 29.5238V30.2831Z" fill="#757575"/>
<path fill-rule="evenodd" clip-rule="evenodd" d="M58.1036 38.8373C57.8718 39.0454 57.5376 39.0597 57.2768 38.9188C56.1141 37.9502 55.9061 37.5025 55.2706 36.5808C53.3498 38.5428 51.9898 39.1309 49.5014 39.1309C46.5548 39.1309 44.2637 37.3083 44.2637 33.663C44.2637 30.8148 45.8022 28.8783 47.9954 27.9288C49.894 27.0935 52.546 26.9415 54.5752 26.7138V26.2582C54.5752 25.4228 54.6406 24.4351 54.15 23.714C53.7245 23.0681 52.9056 22.8023 52.1863 22.8023C50.8514 22.8023 49.6641 23.488 49.3732 24.9091C49.3124 25.2251 49.0822 25.5379 48.765 25.5542L45.3735 25.1861C45.0869 25.1212 44.7682 24.8912 44.8512 24.4526C45.6304 20.327 49.3462 19.0806 52.6766 19.0806C54.3791 19.0806 56.6051 19.5362 57.9472 20.8276C59.6501 22.4226 59.4858 24.5493 59.4858 26.8654V32.3314C59.4858 33.9758 60.1673 34.6969 60.8068 35.5831C61.0299 35.9023 61.0803 36.282 60.7953 36.5148C60.0804 37.1157 58.8102 38.2216 58.1119 38.8452L58.1036 38.8373ZM54.5752 30.2831C54.5752 31.6505 54.6081 32.7895 53.9206 34.0048C53.3649 34.9922 52.4805 35.5999 51.4984 35.5999C50.1563 35.5999 49.3704 34.5743 49.3704 33.0553C49.3704 30.0674 52.0442 29.5238 54.5752 29.5238V30.2831Z" fill="#757575"/>
</svg>
