<svg width="32" height="32" viewBox="0 0 32 32" fill="none" xmlns="http://www.w3.org/2000/svg">
<path fill-rule="evenodd" clip-rule="evenodd" d="M8 1.33301C5.79086 1.33301 4 3.12387 4 5.33301V9.33301C4 11.5421 5.79086 13.333 8 13.333H24C26.2091 13.333 28 11.5421 28 9.33301V5.33301C28 3.12387 26.2091 1.33301 24 1.33301H8ZM6.66667 5.33301C6.66667 4.59663 7.26362 3.99967 8 3.99967H24C24.7364 3.99967 25.3333 4.59663 25.3333 5.33301V9.33301C25.3333 10.0694 24.7364 10.6663 24 10.6663H8C7.26362 10.6663 6.66667 10.0694 6.66667 9.33301V5.33301Z" fill="white"/>
<path d="M5.33333 21.333C4.59695 21.333 4 21.93 4 22.6663C4 23.4027 4.59695 23.9997 5.33333 23.9997H26.6667C27.403 23.9997 28 23.4027 28 22.6663C28 21.93 27.403 21.333 26.6667 21.333H5.33333Z" fill="white"/>
<path d="M4 17.333C4 16.5966 4.59695 15.9997 5.33333 15.9997H26.6667C27.403 15.9997 28 16.5966 28 17.333C28 18.0694 27.403 18.6663 26.6667 18.6663H5.33333C4.59695 18.6663 4 18.0694 4 17.333Z" fill="white"/>
<path d="M5.33333 26.6663C4.59695 26.6663 4 27.2633 4 27.9997C4 28.7361 4.59695 29.333 5.33333 29.333H16C16.7364 29.333 17.3333 28.7361 17.3333 27.9997C17.3333 27.2633 16.7364 26.6663 16 26.6663H5.33333Z" fill="white"/>
</svg>
