<svg width="24" height="24" viewBox="0 0 24 24" fill="none" xmlns="http://www.w3.org/2000/svg">
<path fill-rule="evenodd" clip-rule="evenodd" d="M13.9954 3.12994C13.9984 3.08951 14 3.04625 14 3C14 1.89543 13.1046 1 12 1C10.8954 1 10 1.89543 10 3C10 3.04625 10.0016 3.08949 10.0047 3.12992C8.44083 3.35227 7.24772 3.85867 6.35186 4.63844C5.11014 5.71927 4.60782 7.1818 4.33149 8.60064C4.193 9.31171 4.1044 10.0521 4.0201 10.7603L4.01699 10.7864C3.93229 11.498 3.85098 12.1812 3.72784 12.8466C3.47894 14.1918 3.07743 15.3488 2.25498 16.2674C2.05171 16.4944 1.96306 16.8018 2.01418 17.1022C2.0653 17.4026 2.25062 17.6633 2.51754 17.8103C4.14853 18.7087 6.05436 19.3241 8.05628 19.6685C8.06335 19.7102 8.07108 19.7518 8.07945 19.7932C8.19045 20.3419 8.41556 20.8619 8.74103 21.3193C9.10703 21.8336 9.58956 22.2539 10.1492 22.546C10.7088 22.8381 11.3295 22.9936 11.9608 22.9998C12.592 23.006 13.2157 22.8627 13.7809 22.5817C14.3461 22.3006 14.8368 21.8898 15.2129 21.3828C15.5472 20.9319 15.7825 20.4164 15.9043 19.87C15.9191 19.8033 15.9323 19.7361 15.9437 19.6685C17.9457 19.3241 19.8515 18.7087 21.4825 17.8103C21.7494 17.6633 21.9347 17.4026 21.9858 17.1022C22.037 16.8018 21.9483 16.4944 21.745 16.2674C20.9226 15.3488 20.5211 14.1918 20.2721 12.8466C20.149 12.1812 20.0677 11.498 19.983 10.7864L19.9799 10.7603C19.8955 10.0521 19.8069 9.31169 19.6684 8.60062C19.3921 7.18178 18.8897 5.71927 17.648 4.63844C16.7522 3.85869 15.5591 3.35231 13.9954 3.12994ZM13.7682 19.9346C13.1801 19.9783 12.5892 20 12 20C11.4108 20 10.82 19.9783 10.2318 19.9346C10.2729 20.0123 10.3192 20.0875 10.3705 20.1596C10.5535 20.4168 10.7948 20.627 11.0746 20.773C11.3544 20.919 11.6648 20.9968 11.9804 20.9999C12.296 21.003 12.6078 20.9313 12.8905 20.7908C13.1731 20.6503 13.4184 20.4449 13.6064 20.1914C13.667 20.1097 13.721 20.0239 13.7682 19.9346ZM12 18C9.31721 18 6.67257 17.5102 4.51162 16.5643C5.1577 15.4976 5.48689 14.3323 5.69446 13.2105C5.82948 12.4808 5.91737 11.7422 5.99973 11.05L6.00608 10.9967C6.09182 10.2764 6.17259 9.60947 6.29461 8.98297C6.53928 7.72667 6.92247 6.79329 7.66496 6.14701C8.40522 5.50267 9.67104 5 11.9999 5C14.3288 5 15.5946 5.50267 16.3349 6.14701C17.0774 6.7933 17.4606 7.72669 17.7053 8.98299C17.8273 9.60948 17.9081 10.2764 17.9939 10.9967L18.0002 11.05C18.0826 11.7422 18.1705 12.4808 18.3055 13.2106C18.5131 14.3323 18.8423 15.4976 19.4884 16.5643C17.3274 17.5102 14.6828 18 12 18Z" fill="#A2A5B9"/>
</svg>
