<svg width="40" height="40" viewBox="0 0 40 40" fill="none" xmlns="http://www.w3.org/2000/svg">
<path d="M21.6667 11.6663C21.6667 10.7459 20.9206 9.99968 20.0001 9.99968C19.0796 9.99968 18.3334 10.7459 18.3334 11.6663V23.333C18.3334 24.2535 19.0796 24.9997 20.0001 24.9997C20.9206 24.9997 21.6667 24.2535 21.6667 23.333V11.6663Z" fill="#5769DF"/>
<path d="M26.6667 13.333C27.5872 13.333 28.3334 14.0792 28.3334 14.9997V19.9997C28.3334 20.9202 27.5872 21.6663 26.6667 21.6663C25.7463 21.6663 25.0001 20.9202 25.0001 19.9997V14.9997C25.0001 14.0792 25.7463 13.333 26.6667 13.333Z" fill="#5769DF"/>
<path d="M15.0001 14.9997C15.0001 14.0792 14.2539 13.333 13.3334 13.333C12.4129 13.333 11.6667 14.0792 11.6667 14.9997V19.9997C11.6667 20.9202 12.4129 21.6663 13.3334 21.6663C14.2539 21.6663 15.0001 20.9202 15.0001 19.9997V14.9997Z" fill="#5769DF"/>
<path fill-rule="evenodd" clip-rule="evenodd" d="M6.66675 3.33301C3.90532 3.33301 1.66675 5.57159 1.66675 8.33301V36.6663C1.66675 37.307 2.03399 37.891 2.61143 38.1685C3.18888 38.4461 3.87429 38.368 4.37457 37.9678L12.2514 31.6663H33.3334C36.0948 31.6663 38.3334 29.4278 38.3334 26.6663V8.33301C38.3334 5.57158 36.0948 3.33301 33.3334 3.33301H6.66675ZM5.00008 8.33301C5.00008 7.41253 5.74627 6.66634 6.66675 6.66634H33.3334C34.2539 6.66634 35.0001 7.41253 35.0001 8.33301V26.6663C35.0001 27.5868 34.2539 28.333 33.3334 28.333H11.6667C11.2883 28.333 10.9211 28.4618 10.6256 28.6982L5.00008 33.1986V8.33301Z" fill="#5769DF"/>
</svg>
