<svg width="20" height="20" viewBox="0 0 20 20" fill="none" xmlns="http://www.w3.org/2000/svg">
<path fill-rule="evenodd" clip-rule="evenodd" d="M12.0044 6.12056C12.2485 6.36464 12.2485 6.76036 12.0044 7.00444L5.12944 13.8794C4.88537 14.1235 4.48965 14.1235 4.24557 13.8795L0.808068 10.4421C0.563985 10.198 0.563976 9.80231 0.808048 9.55822C1.05212 9.31414 1.44785 9.31413 1.69193 9.5582L4.68749 12.5536L11.1206 6.12056C11.3646 5.87648 11.7604 5.87648 12.0044 6.12056Z" fill="white"/>
<path fill-rule="evenodd" clip-rule="evenodd" d="M19.192 6.12056C19.4361 6.36464 19.4361 6.76036 19.192 7.00444L12.317 13.8794C12.073 14.1235 11.6772 14.1235 11.4332 13.8795L9.60714 12.0535C9.36306 11.8094 9.36305 11.4137 9.60712 11.1696C9.85119 10.9255 10.2469 10.9255 10.491 11.1696L11.8751 12.5536L18.3082 6.12056C18.5522 5.87648 18.948 5.87648 19.192 6.12056Z" fill="white"/>
</svg>
