<svg width="33" height="32" viewBox="0 0 33 32" fill="none" xmlns="http://www.w3.org/2000/svg">
<path fill-rule="evenodd" clip-rule="evenodd" d="M26.167 6.37C26.5576 6.74863 26.5576 7.3625 26.167 7.74113L8.16707 25.1927C7.77654 25.5714 7.14338 25.5714 6.75285 25.1927C6.36233 24.8141 6.36233 24.2002 6.75285 23.8216L24.7528 6.37C25.1434 5.99137 25.7765 5.99137 26.167 6.37Z" fill="#4A4A68"/>
<path fill-rule="evenodd" clip-rule="evenodd" d="M6.75285 6.37C7.14338 5.99137 7.77654 5.99137 8.16707 6.37L26.167 23.8216C26.5576 24.2002 26.5576 24.8141 26.167 25.1927C25.7765 25.5714 25.1434 25.5714 24.7528 25.1927L6.75285 7.74113C6.36233 7.3625 6.36233 6.74863 6.75285 6.37Z" fill="#4A4A68"/>
</svg>
