<svg width="40" height="40" viewBox="0 0 40 40" fill="none" xmlns="http://www.w3.org/2000/svg">
<path d="M25.5272 3.41899C26.4004 3.71007 26.8723 4.65393 26.5813 5.52717L16.5813 35.5272C16.2902 36.4004 15.3463 36.8723 14.4731 36.5813C13.5998 36.2902 13.1279 35.3463 13.419 34.4731L23.419 4.47308C23.7101 3.59984 24.6539 3.12791 25.5272 3.41899Z" fill="#5769DF"/>
<path d="M11.1786 12.1549C11.8295 12.8058 11.8295 13.8611 11.1786 14.5119L5.69044 20.0001L11.1786 25.4882C11.8295 26.1391 11.8295 27.1944 11.1786 27.8453C10.5277 28.4961 9.47244 28.4961 8.82157 27.8453L2.1549 21.1786C1.50403 20.5277 1.50403 19.4724 2.1549 18.8216L8.82157 12.1549C9.47244 11.504 10.5277 11.504 11.1786 12.1549Z" fill="#5769DF"/>
<path d="M28.8216 14.5119C28.1707 13.8611 28.1707 12.8058 28.8216 12.1549C29.4724 11.504 30.5277 11.504 31.1786 12.1549L37.8453 18.8216C38.4961 19.4724 38.4961 20.5277 37.8453 21.1786L31.1786 27.8453C30.5277 28.4961 29.4724 28.4961 28.8216 27.8453C28.1707 27.1944 28.1707 26.1391 28.8216 25.4882L34.3097 20.0001L28.8216 14.5119Z" fill="#5769DF"/>
</svg>
