<svg width="99" height="99" viewBox="0 0 99 99" fill="none" xmlns="http://www.w3.org/2000/svg">
<path fill-rule="evenodd" clip-rule="evenodd" d="M54.45 44.55V24.75H44.55V44.55H24.75V54.45H44.55V74.25H54.45V54.45H74.25V44.55H54.45ZM49.5 99C76.8381 99 99 76.8381 99 49.5C99 22.1619 76.8381 0 49.5 0C22.1619 0 0 22.1619 0 49.5C0 76.8381 22.1619 99 49.5 99ZM49.5 89.1C71.3705 89.1 89.1 71.3705 89.1 49.5C89.1 27.6295 71.3705 9.9 49.5 9.9C27.6295 9.9 9.9 27.6295 9.9 49.5C9.9 71.3705 27.6295 89.1 49.5 89.1Z" fill="#A7A7A7"/>
</svg>
