<svg width="24" height="24" viewBox="0 0 24 24" fill="none" xmlns="http://www.w3.org/2000/svg">
<path fill-rule="evenodd" clip-rule="evenodd" d="M19.6213 2.70681C18.4497 1.53523 16.5502 1.53523 15.3786 2.7068L13.7071 4.37838C12.5355 5.54995 12.5355 7.44944 13.7071 8.62102L15.3786 10.2926C16.5502 11.4642 18.4497 11.4642 19.6213 10.2926L21.2929 8.62102C22.4644 7.44945 22.4644 5.54995 21.2929 4.37838L19.6213 2.70681ZM16.7929 4.12102C17.1834 3.73049 17.8165 3.73049 18.2071 4.12102L19.8786 5.79259C20.2692 6.18312 20.2692 6.81628 19.8786 7.20681L18.2071 8.87838C17.8165 9.2689 17.1834 9.2689 16.7929 8.87838L15.1213 7.2068C14.7308 6.81628 14.7308 6.18312 15.1213 5.79259L16.7929 4.12102Z" fill="#5769DF"/>
<path fill-rule="evenodd" clip-rule="evenodd" d="M5 1.99979C3.34315 1.99979 2 3.34294 2 4.99979V7.99979C2 9.65665 3.34315 10.9998 5 10.9998H8C9.65685 10.9998 11 9.65665 11 7.99979V4.99979C11 3.34294 9.65685 1.99979 8 1.99979H5ZM4 4.99979C4 4.44751 4.44772 3.99979 5 3.99979H8C8.55228 3.99979 9 4.44751 9 4.99979V7.99979C9 8.55208 8.55228 8.99979 8 8.99979H5C4.44772 8.99979 4 8.55208 4 7.99979V4.99979Z" fill="#5769DF"/>
<path fill-rule="evenodd" clip-rule="evenodd" d="M2 15.9998C2 14.3429 3.34315 12.9998 5 12.9998H8C9.65685 12.9998 11 14.3429 11 15.9998V18.9998C11 20.6566 9.65685 21.9998 8 21.9998H5C3.34315 21.9998 2 20.6566 2 18.9998V15.9998ZM5 14.9998C4.44772 14.9998 4 15.4475 4 15.9998V18.9998C4 19.5521 4.44772 19.9998 5 19.9998H8C8.55228 19.9998 9 19.5521 9 18.9998V15.9998C9 15.4475 8.55228 14.9998 8 14.9998H5Z" fill="#5769DF"/>
<path fill-rule="evenodd" clip-rule="evenodd" d="M16 12.9998C14.3431 12.9998 13 14.3429 13 15.9998V18.9998C13 20.6566 14.3431 21.9998 16 21.9998H19C20.6569 21.9998 22 20.6566 22 18.9998V15.9998C22 14.3429 20.6569 12.9998 19 12.9998H16ZM15 15.9998C15 15.4475 15.4477 14.9998 16 14.9998H19C19.5523 14.9998 20 15.4475 20 15.9998V18.9998C20 19.5521 19.5523 19.9998 19 19.9998H16C15.4477 19.9998 15 19.5521 15 18.9998V15.9998Z" fill="#5769DF"/>
</svg>
