<svg width="32" height="32" viewBox="0 0 32 32" fill="none" xmlns="http://www.w3.org/2000/svg">
<path d="M18.6667 5.33366C18.6667 6.80642 17.4728 8.00033 16.0001 8.00033C14.5273 8.00033 13.3334 6.80642 13.3334 5.33366C13.3334 3.8609 14.5273 2.66699 16.0001 2.66699C17.4728 2.66699 18.6667 3.8609 18.6667 5.33366Z" fill="white"/>
<path d="M18.6667 16.0003C18.6667 17.4731 17.4728 18.667 16.0001 18.667C14.5273 18.667 13.3334 17.4731 13.3334 16.0003C13.3334 14.5276 14.5273 13.3337 16.0001 13.3337C17.4728 13.3337 18.6667 14.5276 18.6667 16.0003Z" fill="white"/>
<path d="M16.0001 29.3337C17.4728 29.3337 18.6667 28.1398 18.6667 26.667C18.6667 25.1942 17.4728 24.0003 16.0001 24.0003C14.5273 24.0003 13.3334 25.1942 13.3334 26.667C13.3334 28.1398 14.5273 29.3337 16.0001 29.3337Z" fill="white"/>
<path d="M8.00008 16.0003C8.00008 17.4731 6.80617 18.667 5.33341 18.667C3.86066 18.667 2.66675 17.4731 2.66675 16.0003C2.66675 14.5276 3.86066 13.3337 5.33341 13.3337C6.80617 13.3337 8.00008 14.5276 8.00008 16.0003Z" fill="white"/>
<path d="M26.6667 18.667C28.1395 18.667 29.3334 17.4731 29.3334 16.0003C29.3334 14.5276 28.1395 13.3337 26.6667 13.3337C25.194 13.3337 24.0001 14.5276 24.0001 16.0003C24.0001 17.4731 25.194 18.667 26.6667 18.667Z" fill="white"/>
</svg>
