<svg width="40" height="40" viewBox="0 0 40 40" fill="none" xmlns="http://www.w3.org/2000/svg">
<path fill-rule="evenodd" clip-rule="evenodd" d="M11.7289 5.52685L15.4647 9.57399C17.432 11.7053 17.179 15.0578 14.9141 16.8697L13.786 17.7722C12.0306 19.1766 11.7075 21.7212 13.0564 23.5196C14.4868 25.4268 14.2154 28.1122 12.4323 29.6946L9.12472 32.63C12.0447 35.1471 15.8439 36.6667 20 36.6667C21.7442 36.6667 23.4232 36.3993 25 35.9041V28.2451C25 27.9998 24.9458 27.7575 24.8414 27.5355L20.5418 18.3988C19.083 15.2989 21.5118 11.778 24.9277 12.0408C27.2143 12.2167 29.1667 10.4087 29.1667 8.11537V6.07814C26.5373 4.34295 23.3886 3.33333 20 3.33333C16.988 3.33333 14.1656 4.131 11.7289 5.52685ZM32.4555 8.92531C32.0309 12.7671 28.6214 15.6681 24.672 15.3643C23.8042 15.2976 23.1872 16.192 23.5578 16.9795L27.8574 26.1161C28.1708 26.7821 28.3333 27.5091 28.3333 28.2451V34.4374C33.3167 31.5547 36.6667 26.167 36.6667 20C36.6667 15.7496 35.0766 11.8707 32.4555 8.92531ZM6.82734 30.2122L10.2197 27.2015C10.7054 26.7705 10.7793 26.0391 10.3897 25.5196C7.96062 22.2808 8.54237 17.6984 11.7037 15.1693L12.8318 14.2668C13.5868 13.6629 13.6711 12.5453 13.0154 11.8349L8.99675 7.48139C5.52212 10.5377 3.33333 15.0132 3.33333 20C3.33333 23.8488 4.6363 27.3906 6.82734 30.2122ZM8.1808 3.86445C11.4921 1.4352 15.5809 0 20 0C24.4191 0 28.5079 1.4352 31.8192 3.86445C36.7764 7.50119 40 13.3743 40 20C40 28.4826 34.7198 35.7278 27.273 38.636C25.0166 39.5172 22.5627 40 20 40C14.2691 40 9.09905 37.5874 5.45475 33.7273C2.0746 30.1469 0 25.3139 0 20C0 13.3743 3.22361 7.50119 8.1808 3.86445Z" fill="#5769DF"/>
</svg>
