<svg width="16" height="16" viewBox="0 0 16 16" fill="none" xmlns="http://www.w3.org/2000/svg">
<path fill-rule="evenodd" clip-rule="evenodd" d="M10.8619 1.52827C11.1223 1.26792 11.5444 1.26792 11.8047 1.52827L14.4714 4.19494C14.7318 4.45529 14.7318 4.8774 14.4714 5.13775L5.13808 14.4711C5.01306 14.5961 4.84349 14.6663 4.66668 14.6663H2.00001C1.63182 14.6663 1.33334 14.3679 1.33334 13.9997V11.333C1.33334 11.1562 1.40358 10.9866 1.52861 10.8616L10.8619 1.52827ZM10.2762 3.99967L12 5.72353L13.0572 4.66634L11.3333 2.94248L10.2762 3.99967ZM11.0572 6.66634L9.33334 4.94248L3.60949 10.6663L5.33334 12.3902L11.0572 6.66634ZM4.39053 13.333L2.66668 11.6091V13.333H4.39053Z" fill="white"/>
</svg>
