<svg width="24" height="24" viewBox="0 0 24 24" fill="none" xmlns="http://www.w3.org/2000/svg">
<path d="M7.83205 12.5548C8.1384 12.0953 8.01423 11.4744 7.5547 11.1681C7.09517 10.8617 6.4743 10.9859 6.16795 11.4454L4.16795 14.4454C3.96338 14.7523 3.94431 15.1468 4.11832 15.472C4.29234 15.7971 4.6312 16.0001 5 16.0001H7.13148L6.16795 17.4454C5.8616 17.9049 5.98577 18.5258 6.4453 18.8322C6.90483 19.1385 7.5257 19.0143 7.83205 18.5548L9.83205 15.5548C10.0366 15.2479 10.0557 14.8534 9.88167 14.5282C9.70765 14.2031 9.3688 14.0001 9 14.0001H6.86852L7.83205 12.5548Z" fill="#1E1E1E"/>
<path fill-rule="evenodd" clip-rule="evenodd" d="M1 4C1 2.34315 2.34315 1 4 1H10C11.6569 1 13 2.34315 13 4V12H14C15.6569 12 17 13.3431 17 15V20C17 20.5523 17.4477 21 18 21C18.5523 21 19 20.5523 19 20V9.30278L17.1679 6.5547C17.0584 6.39043 17 6.19742 17 6V2C17 1.44772 17.4477 1 18 1H22C22.5523 1 23 1.44772 23 2V6C23 6.19742 22.9416 6.39043 22.8321 6.5547L21 9.30278V20C21 21.6569 19.6569 23 18 23C16.3431 23 15 21.6569 15 20V15C15 14.4477 14.5523 14 14 14H13V20C13 21.6569 11.6569 23 10 23H4C2.34315 23 1 21.6569 1 20V4ZM11 9V20C11 20.5523 10.5523 21 10 21H4C3.44772 21 3 20.5523 3 20V9H11ZM4 3C3.44772 3 3 3.44772 3 4V7H11V4C11 3.44772 10.5523 3 10 3H4ZM20 7.19722L21 5.69722V3H19V5.69722L20 7.19722Z" fill="#1E1E1E"/>
</svg>
