<svg width="24" height="24" viewBox="0 0 24 24" fill="none" xmlns="http://www.w3.org/2000/svg">
<path d="M3 2C3 1.44772 2.55228 1 2 1C1.44772 1 1 1.44772 1 2V20C1 21.6569 2.34315 23 4 23H22C22.5523 23 23 22.5523 23 22C23 21.4477 22.5523 21 22 21H4C3.44772 21 3 20.5523 3 20V2Z" fill="#5769DF"/>
<path d="M5.36605 11.9869C7.21771 13.5047 8.78146 14.1048 10.2379 13.9854C11.6513 13.8695 12.7392 13.079 13.5937 12.4486L13.6728 12.3902C14.5611 11.7345 15.2369 11.2357 16.0522 11.0619C16.8112 10.9001 17.8528 11.0013 19.4516 12.0498C19.9135 12.3526 20.5334 12.2237 20.8362 11.7619C21.1391 11.3001 21.0102 10.6801 20.5484 10.3773C18.6472 9.13054 17.0638 8.80137 15.6353 9.10582C14.3809 9.37318 13.3772 10.1185 12.5812 10.7096C12.5218 10.7537 12.4635 10.797 12.4063 10.8392C11.5108 11.4998 10.8487 11.9286 10.0746 11.9921C9.34354 12.052 8.28229 11.7913 6.63395 10.4401C6.20683 10.09 5.57675 10.1524 5.22663 10.5796C4.8765 11.0067 4.93893 11.6368 5.36605 11.9869Z" fill="#5769DF"/>
</svg>
