<svg width="40" height="40" viewBox="0 0 40 40" fill="none" xmlns="http://www.w3.org/2000/svg">
<path fill-rule="evenodd" clip-rule="evenodd" d="M10.2122 6.73633C7.48148 7.15062 5.00008 9.4443 5.00008 13.7136C5.00008 15.7888 5.86706 18.0635 7.34574 20.399C8.81364 22.7175 10.799 24.9617 12.8302 26.9418C14.8552 28.916 16.8868 30.59 18.4155 31.7722C19.0425 32.2571 19.5826 32.6575 20.0001 32.96C20.4175 32.6575 20.9577 32.2571 21.5847 31.7722C23.1133 30.59 25.145 28.916 27.17 26.9418C29.2012 24.9617 31.1865 22.7175 32.6544 20.399C34.1331 18.0635 35.0001 15.7888 35.0001 13.7136C35.0001 9.4443 32.5187 7.15062 29.788 6.73633C27.0149 6.31562 23.5169 7.77523 21.5143 12.1293C21.2423 12.7207 20.651 13.0996 20.0001 13.0996C19.3492 13.0996 18.7579 12.7207 18.4859 12.1293C16.4833 7.77523 12.9853 6.31562 10.2122 6.73633ZM20.0001 34.9996L20.9302 36.3825C20.3678 36.7608 19.6323 36.7608 19.0699 36.3825L20.0001 34.9996ZM20.0001 8.14108C17.3082 4.45623 13.3696 2.88583 9.7122 3.44071C5.24595 4.1183 1.66675 7.9063 1.66675 13.7136C1.66675 16.6766 2.8831 19.5818 4.52942 22.1821C6.18652 24.7994 8.36786 27.2469 10.5033 29.3287C12.645 31.4165 14.78 33.1746 16.3763 34.4091C17.1759 35.0274 17.8436 35.5169 18.3139 35.8535C18.5491 36.0219 18.7352 36.1521 18.8638 36.2413C18.9282 36.2858 18.9782 36.3202 19.0129 36.3438L19.0533 36.3713L19.0646 36.379L19.0699 36.3825C19.0699 36.3825 19.0699 36.3825 20.0001 34.9996C20.9302 36.3825 20.9302 36.3825 20.9302 36.3825L20.9355 36.379L20.9469 36.3713L20.9873 36.3438C21.0219 36.3202 21.072 36.2858 21.1363 36.2413C21.265 36.1521 21.4511 36.0219 21.6863 35.8535C22.1566 35.5169 22.8243 35.0274 23.6238 34.4091C25.2202 33.1746 27.3552 31.4165 29.4968 29.3287C31.6323 27.2469 33.8136 24.7994 35.4707 22.1821C37.1171 19.5818 38.3334 16.6766 38.3334 13.7136C38.3334 7.9063 34.7542 4.1183 30.288 3.44071C26.6306 2.88583 22.692 4.45623 20.0001 8.14108Z" fill="#5769DF"/>
</svg>
