<svg width="20" height="20" viewBox="0 0 20 20" fill="none" xmlns="http://www.w3.org/2000/svg">
<path fill-rule="evenodd" clip-rule="evenodd" d="M1.875 10C1.875 5.51269 5.51269 1.875 10 1.875C14.4873 1.875 18.125 5.51269 18.125 10C18.125 14.4873 14.4873 18.125 10 18.125C5.51269 18.125 1.875 14.4873 1.875 10Z" fill="#4B4DED" fill-opacity="0.2"/>
<path fill-rule="evenodd" clip-rule="evenodd" d="M8.80411 5.86288C9.37513 5.62635 10.0035 5.56447 10.6097 5.68505C11.2158 5.80563 11.7727 6.10325 12.2097 6.54029C12.6467 6.97733 12.9444 7.53415 13.065 8.14034C13.1855 8.74653 13.1236 9.37487 12.8871 9.94589C12.6506 10.5169 12.2501 11.005 11.7362 11.3483C11.3977 11.5745 11.02 11.7312 10.625 11.8119V11.875C10.625 12.2202 10.3452 12.5 10 12.5C9.65482 12.5 9.375 12.2202 9.375 11.875V11.25C9.375 10.9048 9.65482 10.625 10 10.625C10.3708 10.625 10.7334 10.515 11.0417 10.309C11.35 10.103 11.5904 9.81014 11.7323 9.46753C11.8742 9.12492 11.9113 8.74792 11.839 8.38421C11.7666 8.02049 11.588 7.6864 11.3258 7.42418C11.0636 7.16195 10.7295 6.98338 10.3658 6.91103C10.0021 6.83868 9.62508 6.87581 9.28247 7.01773C8.93986 7.15964 8.64702 7.39996 8.44099 7.70831C8.23497 8.01665 8.125 8.37916 8.125 8.75C8.125 9.09518 7.84518 9.375 7.5 9.375C7.15482 9.375 6.875 9.09518 6.875 8.75C6.875 8.13193 7.05828 7.52775 7.40166 7.01384C7.74504 6.49994 8.23309 6.0994 8.80411 5.86288Z" fill="#4B4DED"/>
<path d="M10 15.3125C10.5178 15.3125 10.9375 14.8928 10.9375 14.375C10.9375 13.8572 10.5178 13.4375 10 13.4375C9.48223 13.4375 9.0625 13.8572 9.0625 14.375C9.0625 14.8928 9.48223 15.3125 10 15.3125Z" fill="#4B4DED"/>
</svg>
