<svg width="16" height="20" viewBox="0 0 16 20" fill="none" xmlns="http://www.w3.org/2000/svg">
<path fill-rule="evenodd" clip-rule="evenodd" d="M6.00008 13.4999C6.00008 12.3954 6.89551 11.4999 8.00008 11.4999C9.10465 11.4999 10.0001 12.3954 10.0001 13.4999C10.0001 14.2402 9.59788 14.8866 9.00008 15.2324V16.0009C9.00008 16.5526 8.55622 16.9999 8.00008 16.9999C7.4478 16.9999 7.00008 16.5566 7.00008 16.0009V15.2324C6.40228 14.8866 6.00008 14.2402 6.00008 13.4999ZM1.99988 6.00016C1.99988 2.68618 4.68575 0 7.99988 0C11.313 0 13.9999 2.68778 13.9999 6.00026V8.5C15.1046 8.50115 15.9999 9.39353 15.9999 10.5031V17.9969C15.9999 19.1032 15.1054 20 13.9977 20H2.00201C0.896262 20 -0.00012207 19.1072 -0.00012207 17.9969V10.5031C-0.00012207 9.39755 0.893246 8.50115 1.99988 8.5V6.00016ZM4.00006 8.49992H12.0001V6.00017C12.0001 3.79212 10.2084 1.99992 8.00006 1.99992C5.79055 1.99992 4.00006 3.79061 4.00006 6.00008V8.49992ZM1.99994 10.5001V18.0001H13.9999V10.5001H1.99994Z" fill="#FF5150"/>
</svg>
