<svg width="83" height="99" viewBox="0 0 83 99" fill="none" xmlns="http://www.w3.org/2000/svg">
<path fill-rule="evenodd" clip-rule="evenodd" d="M81.8026 43.9443C81.8018 43.9333 81.7979 43.9231 81.7968 43.9121C81.794 43.8901 81.7897 43.8689 81.7846 43.8477C81.7775 43.8166 81.7681 43.786 81.756 43.7561C81.7481 43.7369 81.7395 43.7176 81.7293 43.6992C81.7137 43.6701 81.6948 43.6434 81.6745 43.6174C81.6623 43.6013 81.6506 43.5848 81.6365 43.5703C81.611 43.5444 81.582 43.522 81.5518 43.5004C81.54 43.4921 81.5314 43.4811 81.5189 43.4737C81.5161 43.4717 81.5126 43.4713 81.5099 43.4697C81.5063 43.4678 81.504 43.465 81.5005 43.4631L68.1093 36.0251C67.9247 35.9226 67.6982 35.9269 67.5179 36.0377L56.2144 42.9645C56.1948 42.9767 56.1795 42.9928 56.1619 43.0069C56.1435 43.0215 56.1235 43.0348 56.1066 43.0513C56.0874 43.071 56.0717 43.0934 56.0553 43.1154C56.0416 43.1338 56.0263 43.1507 56.0145 43.17C56.0004 43.1943 55.991 43.2214 55.9804 43.2474C55.9722 43.2678 55.9616 43.2874 55.9557 43.3087C55.9475 43.3369 55.9455 43.3672 55.942 43.3971C55.9397 43.4167 55.9334 43.4356 55.933 43.4556L55.8127 49.4706L51.2144 46.426C51.0239 46.2999 50.7782 46.2956 50.5838 46.4146L43.9684 50.4681L43.6815 43.7274C43.6811 43.7102 43.6752 43.6941 43.6729 43.6768C43.6697 43.6516 43.6666 43.6261 43.6599 43.6017C43.6537 43.5778 43.6443 43.555 43.6352 43.5322C43.6258 43.509 43.6164 43.4862 43.6047 43.465C43.5925 43.4434 43.5776 43.4238 43.5631 43.4037C43.5482 43.3837 43.5337 43.3641 43.5165 43.346C43.4993 43.3283 43.48 43.3126 43.4605 43.2969C43.4471 43.2863 43.4365 43.2729 43.422 43.2635L36.5377 38.6282L42.9815 35.2669C43.1838 35.1608 43.3072 34.9475 43.2974 34.7188L42.215 9.34263C42.2138 9.31159 42.2063 9.28213 42.2005 9.25188C42.1977 9.23931 42.1973 9.22634 42.1942 9.21377C42.1805 9.16348 42.1605 9.11516 42.1342 9.07038C42.1283 9.06055 42.1205 9.05231 42.1138 9.04288C42.0915 9.00909 42.0668 8.97766 42.0378 8.94898C42.0249 8.93641 42.0104 8.92581 41.9967 8.91441C41.981 8.90145 41.9673 8.88652 41.95 8.87513C41.9371 8.86648 41.9218 8.86177 41.9081 8.85431C41.8991 8.8492 41.8924 8.84134 41.8834 8.83702L24.5198 0.438519C24.3854 0.373698 24.2318 0.361912 24.0895 0.406698L0.409083 7.80145C0.407908 7.80184 0.406732 7.80263 0.405556 7.80302C0.385177 7.8097 0.368325 7.82148 0.349121 7.83013C0.3162 7.84466 0.282496 7.85763 0.252319 7.87845C0.250751 7.87963 0.248792 7.87963 0.247616 7.8808C0.23194 7.8918 0.220966 7.90713 0.206857 7.91931C0.179032 7.94288 0.150814 7.96566 0.128475 7.99316C0.112799 8.0128 0.102217 8.03559 0.0888924 8.0572C0.072824 8.08352 0.0547962 8.10866 0.0430388 8.13695C0.0324573 8.16248 0.0277543 8.19038 0.0206999 8.21748C0.0144294 8.24145 0.0042397 8.26423 0.000712508 8.28938C0.000320598 8.29291 0.00149633 8.29645 0.00110442 8.30038C-0.00163895 8.3267 0.00149633 8.35223 0.00228015 8.37855C0.00306397 8.40959 0.00188824 8.44023 0.0077669 8.47127C0.00855072 8.47559 0.00737499 8.47952 0.00815881 8.48345L5.2919 34.0659C5.32011 34.2026 5.39614 34.3252 5.50588 34.4112L12.6774 40.0146L7.49287 42.4892C7.48268 42.4939 7.47484 42.5013 7.46543 42.5068C7.45838 42.5108 7.45015 42.5116 7.44348 42.5159C7.4329 42.5218 7.42624 42.5316 7.41644 42.5383C7.3847 42.5603 7.3557 42.5842 7.32944 42.6109C7.31611 42.6247 7.3024 42.6381 7.29064 42.653C7.26517 42.6848 7.24439 42.719 7.22597 42.7547C7.21931 42.7681 7.21069 42.7799 7.20481 42.7936C7.18443 42.8423 7.16915 42.8938 7.16248 42.9476C7.16209 42.9496 7.16248 42.9516 7.16248 42.9531C7.16131 42.9629 7.16288 42.9728 7.16248 42.9826C7.15935 43.0286 7.16092 43.0753 7.16915 43.1217C7.17032 43.1283 7.16876 43.1342 7.16993 43.1405L11.1455 62.3948C11.1702 62.5135 11.2305 62.6215 11.3183 62.7044L16.3097 67.4175L13.002 69.4451C12.9588 69.4714 12.9208 69.504 12.8863 69.5397C12.8781 69.5488 12.8714 69.559 12.8632 69.5684C12.8346 69.6022 12.8103 69.6391 12.7899 69.678C12.7829 69.6918 12.7758 69.7051 12.7699 69.7193C12.7496 69.768 12.7339 69.8187 12.7268 69.8713C12.7264 69.8741 12.7253 69.8764 12.7253 69.8788C12.7249 69.8796 12.7249 69.8799 12.7249 69.8803C12.7182 69.9373 12.7229 69.9931 12.7323 70.0481C12.7335 70.0544 12.7319 70.0607 12.7331 70.0669L15.8131 84.9778C15.8351 85.0851 15.886 85.1833 15.9609 85.2627L28.4181 98.5177C28.435 98.5357 28.4542 98.5499 28.473 98.5652C28.4828 98.5734 28.4918 98.5829 28.502 98.5903C28.5392 98.6174 28.58 98.6402 28.6235 98.6583C28.6259 98.6591 28.6274 98.661 28.6298 98.6618C28.6341 98.6634 28.6388 98.6626 28.6427 98.6642C28.7089 98.6886 28.7771 98.7027 28.8457 98.7031H28.8461C28.9033 98.7031 28.9605 98.6913 29.0166 98.674C29.0303 98.6701 29.0444 98.665 29.0581 98.6595C29.0726 98.654 29.0875 98.6512 29.102 98.6442C29.1244 98.6332 29.1412 98.6159 29.1616 98.6021C29.1781 98.5919 29.1969 98.5868 29.2122 98.5742L45.2358 85.7769C45.3828 85.6598 45.4647 85.4791 45.4568 85.2909L45.0822 76.5051L50.4353 81.0218C50.4427 81.028 50.4529 81.0304 50.4608 81.0363C50.4925 81.0607 50.5239 81.0854 50.5607 81.1031C50.5728 81.1086 50.5858 81.1109 50.5979 81.1157C50.6105 81.1208 50.6234 81.1251 50.6363 81.129C50.6939 81.1475 50.7535 81.16 50.8139 81.16C50.8719 81.16 50.9287 81.1483 50.9843 81.1314C50.9977 81.1274 51.011 81.1227 51.0243 81.1176C51.0376 81.1125 51.051 81.1102 51.0639 81.1043C51.0921 81.0909 51.1149 81.0709 51.1403 81.054C51.1529 81.0453 51.1682 81.0414 51.1803 81.0316L64.0248 70.7627C64.1549 70.6586 64.2348 70.5038 64.2446 70.3376L64.6354 63.894L68.5435 66.6208C68.5525 66.6271 68.5631 66.6291 68.5725 66.6349C68.5827 66.6412 68.5905 66.6507 68.6011 66.6562C68.6239 66.6683 68.6481 66.6746 68.6717 66.6837C68.6877 66.6896 68.703 66.697 68.7191 66.7017C68.7716 66.7167 68.8249 66.7261 68.879 66.7261C68.937 66.7261 68.9938 66.7143 69.0491 66.6974C69.0628 66.6935 69.0761 66.6892 69.0894 66.6837C69.1024 66.6789 69.1161 66.6766 69.1286 66.6707C69.1623 66.6546 69.1913 66.6326 69.2207 66.6114C69.2286 66.6055 69.238 66.6035 69.2454 66.5976L79.7235 58.2254C79.8423 58.1308 79.9195 57.9944 79.9399 57.844L81.7983 44.0571C81.8003 44.0425 81.7971 44.0284 81.7979 44.0138C81.7991 43.9907 81.8038 43.9679 81.8026 43.9443Z" fill="#757575"/>
<path fill-rule="evenodd" clip-rule="evenodd" d="M20.4351 44.5817H20.4355L16.7139 19.112L1.43726 9.59033L6.39884 33.6147L20.4351 44.5817ZM14.277 71.7293L16.9303 84.5761L27.9931 96.3473L26.099 83.3846L14.277 71.7293ZM44.4522 61.8352L44.4953 62.8488C44.5039 63.0535 44.4059 63.2479 44.2362 63.3627L39.9723 66.2419L44.6089 70.0357C44.6121 70.0385 44.6144 70.042 44.6176 70.0448C44.6305 70.0558 44.6407 70.0691 44.6528 70.0813C44.6756 70.1041 44.6971 70.1276 44.7155 70.154C44.7265 70.1697 44.7351 70.1858 44.7445 70.2023C44.7594 70.2286 44.7728 70.2557 44.7837 70.284C44.7904 70.3021 44.7963 70.3201 44.8014 70.3386C44.8096 70.3689 44.8143 70.3995 44.8178 70.4309C44.819 70.4431 44.8237 70.4545 44.8241 70.4671L45.0138 74.9072L50.2148 79.2958L50.1055 66.161L44.4522 61.8352ZM57.0878 44.5161L56.9733 50.2393L64.8523 55.456C64.8758 55.4713 64.895 55.4918 64.9158 55.5102C64.9275 55.5208 64.9409 55.5295 64.9515 55.5409C65.0228 55.6155 65.0729 55.707 65.0976 55.8072C65.1016 55.8229 65.1019 55.8394 65.1043 55.8555C65.1086 55.8826 65.1153 55.909 65.1161 55.9369C65.1161 55.9459 65.1133 55.9545 65.1133 55.9636C65.1129 55.9703 65.1153 55.9765 65.1149 55.9832L64.7187 62.5164L68.3811 65.0716L69.487 52.2597L57.0878 44.5161ZM24.685 73.7066L12.2591 61.9739L8.66213 44.5542L22.0631 55.7471L24.685 73.7066Z" fill="#A7A7A7"/>
<path fill-rule="evenodd" clip-rule="evenodd" d="M42.1069 34.3942L41.0754 10.2119L17.906 19.1368L21.6919 45.0438L42.1069 34.3942ZM43.3069 62.5688L42.5482 44.7421L23.2524 55.7515L25.9582 74.2842L43.3069 62.5688ZM43.6965 71.6045L27.2864 83.3733L29.2793 97.0141H29.2796L44.2694 85.0418L43.6965 71.6045ZM51.2819 66.1681L51.3916 79.3552L63.087 70.0044L63.8665 57.1462L51.2819 66.1681ZM80.4514 45.2516L78.8062 57.4514L69.5829 64.821L70.6662 52.2716L80.4514 45.2516Z" fill="white"/>
</svg>
