<svg width="1216" height="364" viewBox="0 0 1216 364" fill="none" xmlns="http://www.w3.org/2000/svg">
<path d="M133.8 146.9L153.9 126.8C173.1 107.6 204.4 107.6 223.6 126.8L243.7 146.9C262.9 166.1 262.9 197.4 243.7 216.6L223.6 236.7C204.4 255.9 173.1 255.9 153.9 236.7L133.8 216.6C114.7 197.5 114.7 166.1 133.8 146.9Z" fill="#5CE2B2"/>
<path d="M596.2 206.4L515.7 74.9H469.4V289.1H515.7V157.6L596.2 289.1H642.5V74.9H596.2V206.4Z" fill="#242628"/>
<path d="M1016 206.4L935.5 74.9H889.2V289.1H935.5V157.6L1016 289.1H1062.3V74.9H1016V206.4Z" fill="#242628"/>
<path d="M809.9 74.9L758.9 158.1H738.6V74.9H692.3V289.1H738.6V200H757.6L817.6 289.1H868.3L797.2 182L862.8 74.9H809.9Z" fill="#242628"/>
<path d="M1215.8 162.4H1176.5L1151.8 206.8L1127.2 162.4H1087.9L1127 226.2L1088.5 289.1H1126.4L1153.2 245.4L1177.3 289.1H1215.2L1176.7 226.2L1215.8 162.4Z" fill="#242628"/>
<path d="M280.2 37.7C255.1 12.6 222 0 188.9 0C155.8 0 122.7 12.6 97.6001 37.7L0.100098 135.2V169.2L78.9001 169.1C107.6 140.4 141.3 106.7 141.3 106.7C154.4 93.6 171.7 87.1 188.9 87.1C206.2 87.1 223.4 93.6 236.5 106.7C236.5 106.7 270.2 140.4 298.9 169.1L377.7 169.2V135.2L280.2 37.7Z" fill="#5769DF"/>
<path d="M236.4 257.3C223.3 270.4 206 276.9 188.8 276.9C171.5 276.9 154.3 270.4 141.2 257.3C141.2 257.3 107.5 223.6 78.8 194.9L0 194.8V228.8L97.5 326.3C122.6 351.4 155.7 364 188.8 364C221.9 364 255 351.4 280.1 326.3L377.6 228.8V194.8L298.8 194.9C270.1 223.6 236.4 257.3 236.4 257.3Z" fill="#5769DF"/>
</svg>
