<svg width="19" height="16" viewBox="0 0 19 16" fill="none" xmlns="http://www.w3.org/2000/svg">
<path d="M2.28489 3.26927C2.29642 3.15448 2.28069 3.0386 2.23899 2.93104C2.19728 2.82348 2.13078 2.72728 2.04489 2.65027L0.274889 0.517266V0.197266H5.77289L10.0229 9.51727L13.7589 0.197266H18.9999V0.516266L17.4849 1.96727C17.4215 2.01665 17.3725 2.08211 17.3429 2.15685C17.3134 2.23159 17.3044 2.31288 17.3169 2.39227V13.0583C17.3042 13.1377 17.3131 13.219 17.3426 13.2938C17.3722 13.3686 17.4213 13.434 17.4849 13.4833L18.9639 14.9343V15.2533H11.5279V14.9343L13.0569 13.4473C13.2089 13.2973 13.2089 13.2523 13.2089 13.0233V4.40127L8.94989 15.2183H8.37489L3.41689 4.40127V11.6503C3.37589 11.9553 3.47689 12.2623 3.69189 12.4833L5.68389 14.9003V15.2193H0.0358887V14.9003L2.02789 12.4833C2.13269 12.3741 2.2105 12.2419 2.25512 12.0972C2.29975 11.9526 2.30994 11.7995 2.28489 11.6503V3.26927Z" fill="white"/>
</svg>
