<svg width="24" height="24" viewBox="0 0 24 24" fill="none" xmlns="http://www.w3.org/2000/svg">
<path d="M11.925 7.05078C12.5463 7.05078 13.05 6.5471 13.05 5.92578C13.05 5.30446 12.5463 4.80078 11.925 4.80078C11.3037 4.80078 10.8 5.30446 10.8 5.92578C10.8 6.5471 11.3037 7.05078 11.925 7.05078Z" fill="#4A4A68"/>
<path d="M11.925 13.4258C12.5463 13.4258 13.05 12.9221 13.05 12.3008C13.05 11.6795 12.5463 11.1758 11.925 11.1758C11.3037 11.1758 10.8 11.6795 10.8 12.3008C10.8 12.9221 11.3037 13.4258 11.925 13.4258Z" fill="#4A4A68"/>
<path d="M11.925 19.8008C12.5463 19.8008 13.05 19.2971 13.05 18.6758C13.05 18.0545 12.5463 17.5508 11.925 17.5508C11.3037 17.5508 10.8 18.0545 10.8 18.6758C10.8 19.2971 11.3037 19.8008 11.925 19.8008Z" fill="#4A4A68"/>
</svg>
