<svg width="31" height="32" viewBox="0 0 31 32" fill="none" xmlns="http://www.w3.org/2000/svg">
<path d="M15.6226 22.0562C15.6226 22.0562 20.3476 23.2058 24.0908 20.2987C27.8339 17.3916 27.7165 13.0077 27.7165 13.0077C27.7165 13.0077 23.4811 11.7046 19.6342 14.4769C15.7873 17.2492 15.6226 22.0562 15.6226 22.0562Z" fill="white"/>
<path d="M15.6072 24.2486C15.6072 24.2486 16.379 27.5372 19.4052 28.9327C22.4314 30.3282 25.1713 28.8657 25.1713 28.8657C25.1713 28.8657 24.6568 25.8315 21.6785 24.3283C18.7003 22.8252 15.6072 24.2486 15.6072 24.2486Z" fill="white"/>
<path d="M22.7273 22.8252C22.7273 22.8252 24.3609 24.6208 26.7449 24.458C29.1288 24.2953 30.3319 22.442 30.3319 22.442C30.3319 22.442 28.9453 20.7193 26.5588 20.7972C24.1722 20.8752 22.7273 22.8252 22.7273 22.8252Z" fill="white"/>
<path d="M20.3382 11.491C20.3382 11.491 17.8196 7.37496 13.0929 6.81372C8.36612 6.25248 5.31415 9.4351 5.31415 9.4351C5.31415 9.4351 7.37738 13.3172 12.0801 14.0463C16.7828 14.7754 20.3382 11.491 20.3382 11.491Z" fill="white"/>
<path d="M21.9161 9.95141C21.9161 9.95141 23.7238 7.08756 22.5807 3.98464C21.4376 0.881707 18.4551 0 18.4551 0C18.4551 0 16.6542 2.50778 17.6833 5.6497C18.7123 8.79163 21.9161 9.95141 21.9161 9.95141Z" fill="white"/>
<path d="M15.8644 5.98119C15.8644 5.98119 15.9931 3.56921 14.1905 2.0169C12.388 0.464587 10.2133 0.935115 10.2133 0.935115C10.2133 0.935115 9.96116 3.12242 11.7062 4.73747C13.4513 6.35252 15.8644 5.98119 15.8644 5.98119Z" fill="white"/>
<path d="M11.6256 17.1475C11.6256 17.1475 7.45972 19.6375 6.89289 24.3105C6.32606 28.9835 9.54354 32 9.54354 32C9.54354 32 13.4702 29.9653 14.2077 25.3117C14.9452 20.6582 11.6256 17.1475 11.6256 17.1475Z" fill="white"/>
<path d="M10.0658 15.585C10.0658 15.585 7.16643 13.7987 4.03042 14.9288C0.894411 16.0589 0 19.0075 0 19.0075C0 19.0075 2.53659 20.7879 5.71462 19.7706C8.89265 18.7532 10.0658 15.585 10.0658 15.585Z" fill="white"/>
<path d="M6.05164 21.5704C6.05164 21.5704 3.61195 21.4424 2.04266 23.2245C0.473367 25.0065 0.94587 27.1574 0.94587 27.1574C0.94587 27.1574 3.15917 27.4067 4.79278 25.6814C6.42639 23.9561 6.05164 21.5704 6.05164 21.5704Z" fill="white"/>
</svg>
