<svg width="24" height="24" viewBox="0 0 24 24" fill="none" xmlns="http://www.w3.org/2000/svg">
<path d="M9 18C9 17.4477 9.44771 17 10 17H14C14.5523 17 15 17.4477 15 18C15 18.5523 14.5523 19 14 19H10C9.44771 19 9 18.5523 9 18Z" fill="#1E1E1E"/>
<path d="M10 9C10 8.44772 9.55229 8 9 8C8.44772 8 8 8.44772 8 9V11C8 11.5523 8.44772 12 9 12C9.55229 12 10 11.5523 10 11V9Z" fill="#1E1E1E"/>
<path d="M12 6C12.5523 6 13 6.44772 13 7V11C13 11.5523 12.5523 12 12 12C11.4477 12 11 11.5523 11 11V7C11 6.44772 11.4477 6 12 6Z" fill="#1E1E1E"/>
<path d="M16 8C16 7.44772 15.5523 7 15 7C14.4477 7 14 7.44772 14 8V11C14 11.5523 14.4477 12 15 12C15.5523 12 16 11.5523 16 11V8Z" fill="#1E1E1E"/>
<path fill-rule="evenodd" clip-rule="evenodd" d="M3 5C3 3.34315 4.34315 2 6 2H18C19.6569 2 21 3.34315 21 5V13.7639L22.8944 17.5528C22.9639 17.6916 23 17.8448 23 18V19C23 20.6569 21.6569 22 20 22H4C2.34315 22 1 20.6569 1 19V18C1 17.8448 1.03615 17.6916 1.10557 17.5528L3 13.7639V5ZM4.61803 15L3 18.2361V19C3 19.5523 3.44772 20 4 20H20C20.5523 20 21 19.5523 21 19V18.2361L19.382 15H4.61803ZM5 13H19V5C19 4.44772 18.5523 4 18 4H6C5.44772 4 5 4.44772 5 5V13Z" fill="#1E1E1E"/>
</svg>
