<svg width="100" height="100" viewBox="0 0 100 100" fill="none" xmlns="http://www.w3.org/2000/svg">
<circle cx="50" cy="50" r="50" fill="#4A4A68" fill-opacity="0.03"/>
<circle cx="50" cy="50" r="49.5" stroke="#4A4A68" stroke-opacity="0.05"/>
<g clip-path="url(#clip0)">
<path d="M65.5526 44.4229L69.7711 40.2044C69.945 40.0308 70.0268 39.7851 69.992 39.5419C69.9575 39.2987 69.8101 39.0857 69.5947 38.9673L64.5233 36.1825C64.1451 35.975 63.6703 36.1133 63.4625 36.4914C63.2549 36.8698 63.3929 37.3446 63.7713 37.5522L67.9302 39.8358L64.3099 43.4558L51.289 36.3058L54.909 32.6858L58.5684 34.6954C58.9465 34.9029 59.4216 34.765 59.6291 34.3866C59.837 34.0085 59.6987 33.5333 59.3203 33.3258L55.147 31.0339C54.8425 30.8667 54.464 30.9207 54.2187 31.1664L49.9999 35.3851L45.7812 31.1664C45.5355 30.9207 45.1571 30.867 44.8528 31.0339L30.4052 38.9673C30.1898 39.0857 30.0424 39.2984 30.0079 39.5419C29.9731 39.7851 30.0549 40.0308 30.2288 40.2044L34.4473 44.4229L30.2288 48.641C30.0549 48.815 29.9731 49.0603 30.0079 49.3039C30.0424 49.5471 30.1898 49.7601 30.4052 49.8782L34.7711 52.2757V60.289C34.7711 60.5743 34.9264 60.8368 35.1763 60.9741L49.624 68.9071C49.7411 68.9715 49.8705 69.0036 49.9999 69.0036C50.1293 69.0036 50.2587 68.9715 50.3759 68.9071L64.8235 60.9741C65.0735 60.8368 65.2288 60.5743 65.2288 60.289V52.2757L69.5947 49.8785C69.8101 49.7601 69.9575 49.5471 69.992 49.3039C70.0268 49.0606 69.945 48.815 69.7711 48.6413L65.5526 44.4229ZM49.9999 51.4645L37.1755 44.4226L49.9999 37.3803L62.8243 44.4226L49.9999 51.4645ZM45.0912 32.6858L48.7109 36.3058L35.6899 43.4558L32.0699 39.8358L45.0912 32.6858ZM35.6905 45.3897L48.7115 52.5396L45.0912 56.1599L32.0699 49.01L35.6905 45.3897ZM63.6663 59.8269L50.7812 66.9021V58.916C50.7812 58.4845 50.4315 58.1347 49.9999 58.1347C49.5684 58.1347 49.2187 58.4845 49.2187 58.916V66.9021L36.3336 59.8269V53.1338L44.8528 57.8119C44.9709 57.8766 45.1003 57.9083 45.2285 57.9083C45.4308 57.9083 45.631 57.8296 45.7812 57.6794L49.9999 53.4607L54.2187 57.6794C54.3688 57.8299 54.569 57.9083 54.7714 57.9083C54.8995 57.9083 55.0289 57.8766 55.147 57.8119L63.6663 53.1338V59.8269ZM54.909 56.1599L51.2887 52.5393L64.3096 45.3897L67.9302 49.0097L54.909 56.1599Z" fill="#4A4A68" fill-opacity="0.3"/>
<path d="M61.625 36.2637C61.8304 36.2637 62.0312 36.1801 62.1774 36.0345C62.3226 35.8893 62.4062 35.6879 62.4062 35.4825C62.4062 35.2768 62.3226 35.0754 62.1774 34.9301C62.0321 34.7845 61.8304 34.7012 61.625 34.7012C61.4187 34.7012 61.2179 34.7845 61.0726 34.9301C60.9265 35.0754 60.8438 35.2768 60.8438 35.4825C60.8438 35.6879 60.9265 35.8893 61.0726 36.0345C61.2179 36.1801 61.4196 36.2637 61.625 36.2637Z" fill="#4A4A68" fill-opacity="0.3"/>
<path d="M50 55.5411C49.7946 55.5411 49.5929 55.6244 49.4476 55.77C49.3024 55.9158 49.2188 56.1166 49.2188 56.3223C49.2188 56.5283 49.3024 56.7291 49.4476 56.8753C49.5929 57.0206 49.7946 57.1036 50 57.1036C50.2054 57.1036 50.4071 57.0206 50.5524 56.8753C50.6976 56.7291 50.7812 56.5283 50.7812 56.3223C50.7812 56.1166 50.6976 55.9158 50.5524 55.77C50.4071 55.6244 50.2054 55.5411 50 55.5411Z" fill="#4A4A68" fill-opacity="0.3"/>
</g>
<defs>
<clipPath id="clip0">
<rect width="40" height="40" fill="white" transform="translate(30 30)"/>
</clipPath>
</defs>
</svg>
