<svg width="16" height="16" viewBox="0 0 16 16" fill="none" xmlns="http://www.w3.org/2000/svg">
<path d="M7.99999 2.00033C4.68628 2.00033 1.99999 4.68662 1.99999 8.00033C1.99999 8.36852 1.70151 8.66699 1.33332 8.66699C0.965133 8.66699 0.666656 8.36852 0.666656 8.00033C0.666656 3.95024 3.9499 0.666992 7.99999 0.666992C12.0501 0.666992 15.3333 3.95024 15.3333 8.00033C15.3333 12.0504 12.0501 15.3337 7.99999 15.3337C7.6318 15.3337 7.33332 15.0352 7.33332 14.667C7.33332 14.2988 7.6318 14.0003 7.99999 14.0003C11.3137 14.0003 14 11.314 14 8.00033C14 4.68662 11.3137 2.00033 7.99999 2.00033Z" fill="white"/>
<path fill-rule="evenodd" clip-rule="evenodd" d="M8.47139 7.52894C8.65625 7.7138 8.716 7.98964 8.62421 8.23443L6.62421 13.5678C6.54462 13.78 6.36265 13.9372 6.14112 13.9852C5.91959 14.0332 5.68886 13.9654 5.52858 13.8051L4.33332 12.6098L2.47139 14.4717C2.21104 14.7321 1.78893 14.7321 1.52859 14.4717C1.26824 14.2114 1.26824 13.7893 1.52859 13.5289L3.39051 11.667L2.19525 10.4717C2.03498 10.3115 1.96711 10.0807 2.0151 9.85921C2.06308 9.63768 2.22034 9.45571 2.43257 9.37612L7.76591 7.37612C8.01069 7.28433 8.28654 7.34408 8.47139 7.52894ZM3.87015 10.261L5.7393 12.1302L6.86079 9.13954L3.87015 10.261Z" fill="white"/>
<path d="M6.11422 6.11466C7.15562 5.07326 8.84406 5.07326 9.88546 6.11466C10.9269 7.15606 10.9269 8.8445 9.88546 9.8859C9.6414 10.13 9.36312 10.316 9.06674 10.4452C8.72923 10.5923 8.57491 10.9852 8.72206 11.3227C8.8692 11.6602 9.26209 11.8146 9.5996 11.6674C10.0464 11.4726 10.4643 11.1926 10.8283 10.8287C12.3904 9.26661 12.3904 6.73395 10.8283 5.17185C9.26617 3.60975 6.73351 3.60975 5.17141 5.17185C4.80748 5.53578 4.52749 5.95371 4.33269 6.40054C4.18554 6.73805 4.33986 7.13094 4.67737 7.27808C5.01488 7.42523 5.40777 7.27091 5.55492 6.9334C5.68413 6.63701 5.87016 6.35872 6.11422 6.11466Z" fill="white"/>
</svg>
