<svg width="17" height="16" viewBox="0 0 17 16" fill="none" xmlns="http://www.w3.org/2000/svg">
<path fill-rule="evenodd" clip-rule="evenodd" d="M2.99976 3L13.9998 3C14.2759 3 14.4998 3.22386 14.4998 3.5C14.4998 3.77614 14.2759 4 13.9998 4L2.99976 4C2.72361 4 2.49976 3.77615 2.49976 3.5C2.49976 3.22386 2.72361 3 2.99976 3Z" fill="#ED7470"/>
<path fill-rule="evenodd" clip-rule="evenodd" d="M7 6C7.27614 6 7.5 6.22386 7.5 6.5L7.5 10.5C7.5 10.7761 7.27614 11 7 11C6.72386 11 6.5 10.7761 6.5 10.5L6.5 6.5C6.5 6.22386 6.72386 6 7 6Z" fill="#ED7470"/>
<path fill-rule="evenodd" clip-rule="evenodd" d="M10 6C10.2761 6 10.5 6.22386 10.5 6.5L10.5 10.5C10.5 10.7761 10.2761 11 10 11C9.72386 11 9.5 10.7761 9.5 10.5L9.5 6.5C9.5 6.22386 9.72386 6 10 6Z" fill="#ED7470"/>
<path fill-rule="evenodd" clip-rule="evenodd" d="M3.99976 3C4.2759 3 4.49976 3.22386 4.49976 3.5L4.49976 13L12.4998 13L12.4998 3.5C12.4998 3.22386 12.7236 3 12.9998 3C13.2759 3 13.4998 3.22386 13.4998 3.5L13.4998 13C13.4998 13.2652 13.3944 13.5196 13.2069 13.7071C13.0193 13.8946 12.765 14 12.4998 14L4.49976 14C4.23454 14 3.98019 13.8946 3.79265 13.7071C3.60511 13.5196 3.49976 13.2652 3.49976 13L3.49976 3.5C3.49976 3.22386 3.72361 3 3.99976 3Z" fill="#ED7470"/>
<path fill-rule="evenodd" clip-rule="evenodd" d="M5.93934 1.43934C6.22064 1.15804 6.60218 1 7 1L10 1C10.3978 1 10.7794 1.15804 11.0607 1.43934C11.342 1.72064 11.5 2.10218 11.5 2.5V3.5C11.5 3.77614 11.2761 4 11 4C10.7239 4 10.5 3.77614 10.5 3.5V2.5C10.5 2.36739 10.4473 2.24021 10.3536 2.14645C10.2598 2.05268 10.1326 2 10 2L7 2C6.86739 2 6.74022 2.05268 6.64645 2.14645C6.55268 2.24021 6.5 2.36739 6.5 2.5L6.5 3.5C6.5 3.77614 6.27614 4 6 4C5.72386 4 5.5 3.77614 5.5 3.5L5.5 2.5C5.5 2.10218 5.65804 1.72064 5.93934 1.43934Z" fill="#ED7470"/>
</svg>
