<svg width="83" height="99" viewBox="0 0 83 99" fill="none" xmlns="http://www.w3.org/2000/svg">
<g clip-path="url(#clip0)">
<path d="M48.0253 77.4892L72.9884 15.125C73.913 12.9106 75.2485 11.8291 77.0462 11.8291C78.844 11.8291 80.1794 12.2926 81.0013 13.2195C81.8231 14.1465 82.2854 15.125 82.2854 16.2064C82.2854 17.2879 82.1826 18.0604 81.9772 18.5239L55.7814 82.227C54.2918 85.4714 52.0831 87.1194 49.2067 87.1194H46.8953C43.9676 87.1194 41.8103 85.5229 40.3207 82.227L30.2019 57.6624H40.1152L48.0253 77.4892Z" fill="#757575"/>
<path d="M23.2167 15.4857C22.3435 13.3743 20.2889 11.8809 17.8748 11.8809C17.8748 11.8809 17.8234 11.8809 17.7721 11.8809H4.67416C2.05458 11.8809 0 13.9923 0 16.5672C0 19.1421 2.10594 21.305 4.67416 21.305H15.1525L20.4944 34.334L26.2472 48.599H36.4173L23.2167 15.4857Z" fill="#A7A7A7"/>
</g>
<defs>
<clipPath id="clip0">
<rect width="82.2857" height="99" fill="white"/>
</clipPath>
</defs>
</svg>
