<svg width="24" height="24" viewBox="0 0 24 24" fill="none" xmlns="http://www.w3.org/2000/svg">
<path d="M18 15C18.5523 15 19 14.5523 19 14C19 13.4477 18.5523 13 18 13C17.4477 13 17 13.4477 17 14C17 14.5523 17.4477 15 18 15Z" fill="#A2A5B9"/>
<path fill-rule="evenodd" clip-rule="evenodd" d="M16 2H4C2.34315 2 1 3.34315 1 5V19C1 20.6569 2.34315 22 4 22H20C21.6569 22 23 20.6569 23 19V9C23 7.34315 21.6569 6 20 6H19V5C19 3.34315 17.6569 2 16 2ZM4 4C3.44772 4 3 4.44772 3 5C3 5.55228 3.44772 6 4 6H17V5C17 4.44772 16.5523 4 16 4H4ZM4 8C3.64936 8 3.31278 7.93985 3 7.82929V19C3 19.5523 3.44772 20 4 20H20C20.5523 20 21 19.5523 21 19V9C21 8.44772 20.5523 8 20 8H4Z" fill="#A2A5B9"/>
</svg>
